<svg xmlns="http://www.w3.org/2000/svg" width="100" height="100" style=""><rect id="backgroundrect" width="100%" height="100%" x="0" y="0" fill="none" stroke="none"/>









<g class="currentLayer" style=""><title>Layer 1</title><path d="M-120.26773071289062,-34.64567210895231 H-258.2677307128906 l59.51,0.6656203489005567 c5.22,0.058383660627529026 13.76,0.058383660627529026 18.98,0 z" fill="#81b3d3" id="svg_1" class=""/><path d="M17.789361679077146,0.457 l32.148,37.879 l32.02,-37.65 z" fill="#23a9e1" id="svg_2" class=""/><path d="M42.20236167907715,14.719 h17.32 c-1.29,-0.8 -4.355,-4.582 -6.043,-3.176 c-0.137,0.11500000000000002 -4.871,-5.744 -7.982,-2.9210000000000003 c-2.713,2.466 -3.973,-0.32300000000000006 -7.048,1.6300000000000001 c-3.505,2.318 2.026,3.684 3.753,4.467 m26.73,-3.478 l-9.86,0.05400000000000001 c3.896,-4.5 5.647,-4.018 9.86,-0.05400000000000001 " fill="#fff" id="svg_3" class=""/><path d="M78.72436167907715,3.588 V1.154 h2.08 zm-49.245,9.41 l0.09000000000000002,0.08300000000000002 c0.024000000000000004,-0.024000000000000004 2.327,-2.511 5.983,-4.964 c3.367,-2.259 8.592,-4.944 14.383000000000001,-4.912 c5.7780000000000005,0.028000000000000004 11.077,2.722 14.506,4.977 c3.665,2.41 6.027,4.84 6.132,4.95 l-2.515,2.9450000000000003 c-4.488,0.6160000000000001 -7.702,3.9450000000000003 -12.077,3.217 c-2.205,-0.36600000000000005 -2.271,-1.6320000000000001 -2.902,-2.8930000000000002 c-0.48400000000000004,-0.9690000000000001 -1.256,-0.8460000000000001 -2.263,-1.24 c-0.937,-0.36600000000000005 -1.479,-1.1280000000000001 -3.351,-0.6880000000000002 c-1.6420000000000001,0.38500000000000006 -1.822,2.933 -3.865,2.787 c-1.096,-0.07900000000000001 -1.175,-1.621 -2.755,-3.596 c-4.09,-4.915 -7.892,-4.235 -10.547,0.30800000000000005 l19.638,23.33 zM21.11336167907715,1.153 V3.06 l-1.604,-1.9060000000000001 zm53.876,0 h3.227 v3.03 L74.98936167907715,7.96 zM70.93436167907714,12.61 V1.154 h3.5460000000000003 v7.404 l-3.5,4.098 a0.9660000000000001,0.9660000000000001 0 0 0 -0.04600000000000001,-0.04600000000000001 m-0.508,-10.389 v9.894 a41.051,41.051 0 0 0 -3.557,-2.9859999999999998 zm-4.165,-0.35800000000000004 v6.819 c-0.463,-0.3340000000000001 -0.9500000000000001,-0.6730000000000002 -1.465,-1.012 c-0.6640000000000001,-0.43800000000000006 -1.4,-0.8920000000000001 -2.194,-1.34 zm-4.312,-0.133 v4.24 a32.83,32.83 0 0 0 -3.12,-1.474 zm0.508,-0.5760000000000001 h3.7270000000000003 l-3.7270000000000003,4.55 zm4.312,0 H70.40236167907715 l-3.6340000000000003,7.06 zm-8.797,0 h3.8600000000000003 L58.30236167907715,4.282 c-0.10900000000000001,-0.04200000000000001 -0.22100000000000003,-0.08100000000000002 -0.33100000000000007,-0.12200000000000001 V1.154 zm-0.509,0.41700000000000004 v2.403 a25.927,25.927 0 0 0 -3.1,-0.8870000000000001 zm-4.203,0.04200000000000001 v1.26 a21.458,21.458 0 0 0 -2.179,-0.252 zm-6.766,-0.03900000000000001 l2.248,1.042 c-0.7620000000000001,0.04300000000000001 -1.512,0.13 -2.248,0.253 zm-4.12,-0.003000000000000001 l3.065,1.498 c-1.06,0.22900000000000004 -2.083,0.528 -3.066,0.8750000000000001 zm3.6100000000000003,1.2 l-3.3040000000000003,-1.617 h3.305 zm3.566,-0.3420000000000001 l-2.754,-1.275 h2.754 zm0.6090000000000001,-1.275 h2.8810000000000002 l-2.8810000000000002,1.334 zm3.7590000000000003,0 h3.24 l-3.24,1.584 zM41.50736167907715,4.265 l-3.51,-3.11 h3.869 V4.13 l-0.35900000000000004,0.135 m-3.6180000000000003,-2.527 l3.093,2.741 a31.493,31.493 0 0 0 -3.093,1.489 zm-4.312,0.128 l3.64,4.48 a35.89,35.89 0 0 0 -3.64,2.41 zm-4.165,0.35800000000000004 l3.5860000000000003,6.974 a37.772,37.772 0 0 0 -3.5860000000000003,3.151 zm3.656,6 l-3.6340000000000003,-7.07 h3.6340000000000003 zm4.312,-2.485 l-3.726,-4.585 h3.726 zM24.84936167907715,7.497 L21.62236167907715,3.664 v-2.51 h3.227 zm0.508,-6.343 H28.902361679077146 v11.16 l-3.5460000000000003,-4.212 zm24.8,-1.153 H17.10236167907715 v14.582 L49.93836167907715,54.52 l0.22000000000000003,-0.275 L83.10236167907715,15.04 V0 z" fill="#491213" id="svg_4" class=""/><path d="M47.32936167907715,46.026 l2.6100000000000003,-4.22 l2.598,4.22 l-2.598,4.23 z" fill="#23a9e1" id="svg_5" class=""/><path d="M55.32036167907715,30.556 c-3.433,-2.02 -2.564,-3.523 0.23,-4.925 c1.462,-0.7340000000000001 4.7540000000000004,-3.38 6.133,-2.499 l-6.363,7.424 m-2.334,2.517 c-2.046,-0.09500000000000003 -4.33,-0.36500000000000005 -6.2620000000000005,0.05500000000000001 c1.207,0.30200000000000005 4.151,1.165 1.4100000000000001,1.8940000000000001 c0.983,1.407 2.5780000000000003,1.3170000000000002 3.624,0.08200000000000002 c-0.42500000000000004,-0.20900000000000002 -0.6550000000000001,-0.466 -1.007,-0.6860000000000002 c1.085,-0.19600000000000004 2.1,-0.8220000000000001 2.235,-1.3450000000000002 m1.235,-1.574 c-0.933,-0.796 -1.8770000000000002,-0.8400000000000001 -2.746,0 c-1.165,-2.137 -5.4,-1.421 -7.3790000000000004,-1.7200000000000002 c1.065,2.614 9.65,3.102 10.124,1.7200000000000002 m-6.773,-2.151 c-1.565,-0.48500000000000004 -6.84,-0.36400000000000005 -3.388,-1.794 c1.065,-0.44100000000000006 6.593,0.06300000000000001 3.388,1.794 m1.912,-3.03 c-0.47700000000000004,-1.077 0.36500000000000005,-2.36 1.7400000000000002,-1.428 c1.199,0.8130000000000001 -0.552,2.017 -1.7400000000000002,1.428 m-2.8360000000000003,0.09100000000000003 c-2.265,0.6790000000000002 -5.273,-0.784 -1.6300000000000001,-1.52 c2.261,-0.456 4.666,0.506 1.6300000000000001,1.52 c0.09100000000000003,-0.027000000000000007 -0.08400000000000002,0.028000000000000004 0,0 m-2.665,-6.234 c-0.545,1.624 -1.533,1.927 -1.423,-0.04500000000000001 c0.126,-2.274 1.609,-1.729 3.2,-2.6 c1.324,-0.7260000000000001 2.038,-3.3850000000000002 4.3100000000000005,-1.795 c1.014,0.7100000000000001 2.176,0.11600000000000002 2.5,1.19 c-0.016000000000000004,-0.05400000000000001 -2.95,6.692 -1.318,6.692 c-3.22,0 -1.8,-3.845 -0.5680000000000001,-6.426 c-1.198,0.5740000000000001 -3.143,4.341 -1.546,4.961 c-0.8310000000000001,1.095 -3.372,2.561 -4.696,1.492 c-1.006,-0.81 -0.44700000000000006,-2.158 -0.459,-3.47 m-3.963,2.811 c-5.596,-0.04600000000000001 -1.8130000000000002,-8.648 0.09100000000000003,-8.128 c2.19,0.6960000000000002 1.944,8.194 -0.09100000000000003,8.128 m-6.17,-8.146 c-2.624,-0.10900000000000001 -1.526,-2.567 0.257,-3.121 c1.6950000000000003,-0.528 5.25,1.114 6.39,2.205 c-1.808,0.555 -4.146,0.47600000000000003 -6.134,0.5680000000000001 c-0.14600000000000002,-2.026 -0.6200000000000001,-1.32 -0.512,0.3480000000000001 " fill="#dc6243" id="svg_6" class=""/><path d="M52.87636167907715,25.832 c-2.908,-2.987 4.3420000000000005,-2.712 5.51,-3.763 c0.8500000000000001,0.28400000000000003 6.99,-5.377 8.485,-5.025 c-1.074,1.26 -3.388,5.282 -5.047,5.282 c-1.275,0 -2.565,-0.19000000000000003 -3.552,0.7180000000000001 c-1.444,1.33 -3.837,2.006 -5.396,2.7880000000000003 " fill="#f49774" id="svg_7" class=""/><path d="M53.82936167907715,22.18 c-1.592,0.8560000000000001 -3.098,-2.536 -0.3490000000000001,-2.206 c1.826,0.22000000000000003 3.676,-0.15400000000000003 5.42,0.14700000000000002 c-1.251,1.487 -3.056,2.306 -5.071,2.059 " fill="#f4b1a4" id="svg_8" class=""/><path d="M32.21536167907715,20.935 c0.3330000000000001,0.401 0.5780000000000001,0.8340000000000001 0.523,1.374 c-0.038000000000000006,0.37500000000000006 -0.6070000000000001,1.006 -0.17500000000000002,1.198 l1.455,-1.84 c-0.39000000000000007,-0.09800000000000003 -3.482,-3.7960000000000003 -3.532,-4.201 l-2.051,1.126 c0.10600000000000001,0.42900000000000005 0.8400000000000001,0.003000000000000001 1.203,0.030000000000000006 c0.538,0.038000000000000006 0.926,0.36300000000000004 1.268,0.7470000000000001 c-1.12,0.9400000000000001 -3.85,3.257 -4.138,3.305 c-0.14600000000000002,0.023000000000000007 -0.7060000000000001,-0.39000000000000007 -0.7140000000000001,-0.037000000000000005 c-0.004000000000000001,0.17 0.553,0.6590000000000001 0.6590000000000001,0.786 l1.447,1.722 c0.401,-0.18300000000000002 -0.07200000000000001,-0.47500000000000003 0.133,-0.807 c0.15000000000000002,-0.24300000000000002 3.181,-2.77 3.922,-3.403 m-3.423,-4.531 c0.28700000000000003,-0.06200000000000001 0.405,0.28200000000000003 0.6220000000000001,-0.036000000000000004 l-1.59,-1.8940000000000001 c-0.24100000000000002,-0.28700000000000003 -0.546,-0.5950000000000001 -0.459,0.012000000000000002 c0.05800000000000001,0.40900000000000003 -3.9690000000000003,3.677 -4.215,3.778 c-0.31000000000000005,0.128 -0.49200000000000005,-0.27 -0.7200000000000001,0.06300000000000001 c0.47500000000000003,0.5640000000000001 0.9480000000000001,1.129 1.424,1.693 c0.16000000000000003,0.19000000000000003 0.30900000000000005,0.3970000000000001 0.48500000000000004,0.5730000000000001 c0.22000000000000003,0.22000000000000003 0.135,-0.43700000000000006 0.14500000000000002,-0.38000000000000006 c-0.06000000000000001,-0.3330000000000001 0.3420000000000001,-0.6160000000000001 0.555,-0.797 c1.004,-0.8840000000000001 3.505,-2.979 3.753,-3.012 m-5.694,-0.5950000000000001 c-1.147,0.3400000000000001 -2.37,-0.10700000000000001 -2.731,-1.326 c-0.35300000000000004,-1.191 0.3980000000000001,-2.439 1.344,-3.117 c0.935,-0.6700000000000002 2.33,-0.6300000000000001 2.84,0.544 c0.22400000000000003,0.52 0.10200000000000001,1.108 -0.06100000000000001,1.625 c-0.10500000000000001,0.32800000000000007 -0.38800000000000007,0.6490000000000001 0.035,0.8360000000000001 c0.56,-0.7110000000000001 1.118,-1.421 1.6760000000000002,-2.133 c-0.6840000000000002,-0.41000000000000003 -0.985,-1.092 -1.493,-1.6840000000000002 c-0.5720000000000001,-0.6960000000000002 -1.34,-1.35 -2.26,-1.483 c-1.864,-0.264 -3.62,1.6600000000000001 -3.762,3.4050000000000002 c-0.08900000000000002,0.9460000000000001 0.24200000000000002,1.8490000000000002 0.808,2.597 c0.48700000000000004,0.6450000000000001 1.213,1.054 1.581,1.788 c0.17,0.06200000000000001 1.7560000000000002,-0.6700000000000002 2.133,-0.8150000000000001 c-0.03300000000000001,-0.07200000000000001 -0.05700000000000001,-0.17800000000000002 -0.11000000000000001,-0.23700000000000002 c-0.49400000000000005,0.14600000000000002 0,0 0,0 m25.512,23.636 c-0.7470000000000001,-0.49900000000000005 -2.613,-3.044 -2.9690000000000003,-3.468 l-0.21300000000000002,-0.253 c-0.007000000000000002,-0.010000000000000002 -0.18500000000000003,0.14500000000000002 -0.16000000000000003,0.12400000000000001 c-0.11200000000000002,0.09400000000000003 0.08600000000000002,0.37200000000000005 -0.03400000000000001,0.56 c-0.515,0.806 -3.738,3.236 -3.9050000000000002,3.352 c-0.36000000000000004,0.25 -0.7560000000000001,-0.10300000000000001 -0.9670000000000001,0.20600000000000002 c0.467,0.554 1.8050000000000002,2.3 1.96,2.325 c0.31100000000000005,0.05000000000000001 0.09600000000000003,-0.53 0.136,-0.6490000000000001 c0.08000000000000002,-0.24000000000000002 1.71,-1.588 2.3040000000000003,-2.084 c0.21800000000000003,-0.18300000000000002 0.44700000000000006,0.276 0.5770000000000001,0.468 c0.21200000000000002,0.31500000000000006 0.30700000000000005,0.6500000000000001 0.19300000000000003,1.019 c-0.07500000000000001,0.24000000000000002 -0.465,0.5970000000000001 -0.16200000000000003,0.7620000000000001 c0.402,-0.47000000000000003 1.533,-1.788 1.6960000000000002,-1.98 c0.16400000000000003,-0.19000000000000003 -0.36700000000000005,-0.023000000000000007 -0.30400000000000005,-0.05600000000000001 c-0.24000000000000002,0.12400000000000001 -0.466,0.15300000000000002 -0.6900000000000002,-0.018000000000000002 c-0.06300000000000001,-0.04700000000000001 -0.7070000000000001,-0.7020000000000001 -0.6430000000000001,-0.7570000000000001 c0.28,-0.23500000000000001 0.6230000000000001,-0.6250000000000001 0.984,-0.7140000000000001 c0.56,-0.138 1.027,0.984 1.11,1.3820000000000001 c0.07800000000000001,0.37500000000000006 0.06700000000000002,0.77 -0.05000000000000001,1.1360000000000001 c-0.08000000000000002,0.251 -0.31600000000000006,0.452 0.012000000000000002,0.6040000000000001 l1.383,-1.8960000000000001 a0.463,0.463 0 0 1 -0.258,-0.06300000000000001 c-0.08300000000000002,-0.05600000000000001 0.09000000000000002,0.04500000000000001 0,0 m-9.227,-8.921 a3.35,3.35 0 0 0 -1.9769999999999999,0.793 c-1.4300000000000002,1.203 -1.616,3.275 -0.49200000000000005,4.753 c1.292,1.702 3.374,1.895 5.059,0.6940000000000002 c1.4300000000000002,-1.205 1.612,-3.282 0.5,-4.766 c-0.7580000000000001,-1.01 -1.932,-1.54 -3.09,-1.474 zm1.19,1.3860000000000001 c0.9490000000000001,-0.10800000000000001 1.5030000000000001,0.799 1.099,1.7680000000000002 c-0.42000000000000004,0.98 -1.4300000000000002,1.9889999999999999 -2.424,2.38 c-1.18,0.465 -2.011,-0.537 -1.5310000000000001,-1.657 c0.42200000000000004,-0.984 1.4300000000000002,-1.983 2.426,-2.38 c0.15000000000000002,-0.05900000000000001 0.29400000000000004,-0.09500000000000003 0.43000000000000005,-0.11000000000000001 zm-2.783,-4.63 c0.30800000000000005,0.038000000000000006 0.6010000000000001,0.35600000000000004 0.8240000000000001,0.027000000000000007 l-1.447,-1.7120000000000002 c-0.38600000000000007,0.17400000000000002 0.030000000000000006,0.35600000000000004 -0.126,0.6300000000000001 c-0.15800000000000003,0.277 -1.6620000000000001,0.507 -2.062,0.5780000000000001 c0.14600000000000002,-0.41800000000000004 0.5800000000000001,-1.6980000000000002 0.7520000000000001,-1.84 c0.35300000000000004,-0.29000000000000004 0.5730000000000001,0.28 0.8320000000000001,-0.09200000000000003 l-1.78,-2.112 c-0.2,-0.23800000000000002 -0.36200000000000004,-0.6670000000000001 -0.6360000000000001,-0.44100000000000006 c0.024000000000000004,-0.020000000000000004 0.003000000000000001,0.9550000000000001 -0.05800000000000001,1.125 c-0.05600000000000001,0.15300000000000002 -0.6080000000000001,2.361 -1.25,2.901 c-0.32000000000000006,0.27 -1.453,1.256 -1.7550000000000001,1.362 c-0.35000000000000003,0.12200000000000001 -0.535,-0.38900000000000007 -0.792,-0.025000000000000005 l1.617,1.92 c0.08200000000000002,0.09600000000000003 0.39100000000000007,0.56 0.49800000000000005,0.5800000000000001 c0.3390000000000001,0.06000000000000001 0.04000000000000001,-0.5800000000000001 0.07400000000000001,-0.7060000000000001 c0.09800000000000003,-0.28 1.6230000000000002,-1.7650000000000001 2.27,-1.856 c0.9480000000000001,-0.133 2.077,-0.455 3.039,-0.3400000000000001 c0.22000000000000003,0.027000000000000007 -0.22900000000000004,-0.028000000000000004 0,0 m24.239,6.77 c0.12400000000000001,0.42100000000000004 0.19400000000000003,0.8650000000000001 0.14,1.3050000000000002 c-0.07,0.5660000000000001 -0.6360000000000001,1.8980000000000001 -1.411,1.5190000000000001 c-0.7600000000000001,-0.37300000000000005 -1.425,-1.122 -2.07,-1.657 c0.52,-0.6080000000000001 0.978,-1.135 1.8530000000000002,-0.8400000000000001 c0.24000000000000002,0.08000000000000002 0.44600000000000006,-0.024000000000000004 0.19400000000000003,-0.17 c-0.263,-0.15300000000000002 -2.022,-1.276 -2.117,-1.169 c-0.17500000000000002,0.202 0.3430000000000001,0.5640000000000001 0.14300000000000002,0.9570000000000001 c-0.14800000000000002,0.29000000000000004 -0.3960000000000001,0.54 -0.6050000000000001,0.79 c-0.467,-0.3940000000000001 -1.248,-0.8130000000000001 -0.6850000000000002,-1.464 c0.35200000000000004,-0.42800000000000005 0.811,-0.7600000000000001 1.361,-0.8700000000000001 c0.36800000000000005,-0.07500000000000001 1.195,0.252 1.302,-0.14600000000000002 c-0.7050000000000001,-0.3400000000000001 -1.4100000000000001,-0.6770000000000002 -2.115,-1.016 c0.11500000000000002,0.52 -2.173,2.9370000000000003 -2.681,3.548 c-0.07400000000000001,0.08800000000000002 -0.42700000000000005,0.3950000000000001 -0.43100000000000005,0.517 c-0.006000000000000002,0.278 0.403,0.06200000000000001 0.42700000000000005,0.05400000000000001 c0.31500000000000006,-0.11600000000000002 4.424,3.317 4.526,3.552 c0.06500000000000002,0.18200000000000002 -0.14400000000000002,0.37300000000000005 -0.020000000000000004,0.47500000000000003 c-0.006000000000000002,-0.006000000000000002 0.14800000000000002,0.14 0.16500000000000004,0.12000000000000001 c0.253,-0.30400000000000005 2.936,-3.88 3.489,-4.036 a239.664,239.664 0 0 1 -1.537,-2.372 c-0.38300000000000006,0.16800000000000004 -0.013000000000000003,0.6160000000000001 0.07200000000000001,0.903 m-4,4.352 c-1.348,-0.8700000000000001 -3.633,0.8300000000000001 -3.976,0.994 c-0.6750000000000002,0.31900000000000006 -1.162,-0.35300000000000004 -0.812,-0.975 c0.30400000000000005,-0.54 0.904,-0.801 1.5,-0.8370000000000001 c0.18000000000000002,-0.010000000000000002 0.8750000000000001,0.128 0.9460000000000001,0.017000000000000005 c0.08400000000000002,-0.131 0.14800000000000002,-0.14200000000000002 0.028000000000000004,-0.22400000000000003 c-0.557,-0.37500000000000006 -1.112,-0.7500000000000001 -1.6670000000000003,-1.126 c-0.11500000000000002,0.6850000000000002 -0.9,1.121 -1.348,1.585 c-0.534,0.555 -0.987,1.2530000000000001 -0.987,2.05 c0,0.7360000000000001 0.44100000000000006,1.3900000000000001 1.089,1.726 c0.7370000000000001,0.38400000000000006 1.505,0.07600000000000001 2.158,-0.33100000000000007 c0.40700000000000003,-0.255 0.8140000000000001,-0.556 1.249,-0.7600000000000001 c0.6460000000000001,-0.30300000000000005 1.495,-0.04100000000000001 1.267,0.8240000000000001 c-0.18300000000000002,0.6960000000000002 -0.8760000000000001,1.3370000000000002 -1.56,1.5190000000000001 c-0.4,0.10600000000000001 -0.8250000000000001,0.07 -1.216,-0.05900000000000001 c-0.28,-0.09100000000000003 -0.6450000000000001,-0.47600000000000003 -0.799,-0.07200000000000001 l2.26,1.6470000000000002 c0.06800000000000002,-0.49300000000000005 0.3400000000000001,-0.7080000000000001 0.7060000000000001,-1.015 c0.47700000000000004,-0.41900000000000004 0.933,-0.8580000000000001 1.294,-1.383 c0.7530000000000001,-1.1 1,-2.638 -0.132,-3.58 m17.617,-28.065 a0.22200000000000003,0.22200000000000003 0 0 0 -0.08800000000000002,0.07200000000000001 l-0.79,0.9500000000000001 l-0.8140000000000001,0.982 c-0.16800000000000004,0.20400000000000001 -0.3490000000000001,0.29600000000000004 -0.025000000000000005,0.467 c0.543,-0.272 3.518,4.768 3.252,5.492 c-0.47000000000000003,0.24400000000000002 -4.49,-3.283 -4.598,-3.516 c-0.03300000000000001,-0.09500000000000003 0.17800000000000002,-0.6620000000000001 -0.136,-0.6130000000000001 c-0.14900000000000002,0.023000000000000007 -0.48400000000000004,0.5830000000000001 -0.5780000000000001,0.6970000000000002 l-0.5770000000000001,0.6950000000000002 c0.21600000000000003,0.31500000000000006 0.3360000000000001,-0.013000000000000003 0.6230000000000001,0.028000000000000004 c0.24900000000000003,0.05000000000000001 1.198,0.8640000000000001 1.456,1.08 c-0.47000000000000003,0.017000000000000005 -1.743,0.08600000000000002 -1.905,0.07400000000000001 c-0.5860000000000001,0.07300000000000001 -0.275,-0.43100000000000005 -0.6600000000000001,-0.6050000000000001 l-1.478,1.795 l-0.8600000000000001,1.043 c-0.035,0.04200000000000001 -0.030000000000000006,0.020000000000000004 0.031000000000000007,0.07200000000000001 c0.21500000000000002,0.17700000000000002 0.06800000000000002,0.10900000000000001 0.37000000000000005,0.004000000000000001 c0.32800000000000007,-0.11500000000000002 4.256,3.2 4.398,3.369 c0.24500000000000002,0.29200000000000004 -0.1,0.6330000000000001 0.268,0.793 l1.1680000000000001,-1.4180000000000001 c0.05900000000000001,-0.07200000000000001 0.09100000000000003,-0.06600000000000002 0.013000000000000003,-0.13 c-0.277,-0.22800000000000004 -0.30900000000000005,0.138 -0.6500000000000001,0.1 c-0.3460000000000001,-0.05700000000000001 -2.855,-2.186 -3.8280000000000003,-2.992 l5.322,-0.19700000000000004 c0.19500000000000003,-0.007000000000000002 0.7400000000000001,0.5810000000000001 0.6950000000000002,0.79 c-0.05200000000000001,0.24400000000000002 -0.30100000000000005,0.36100000000000004 0.03400000000000001,0.515 c0.31100000000000005,-0.37400000000000005 0.6400000000000001,-0.7460000000000001 0.9450000000000001,-1.125 l0.14800000000000002,-0.18400000000000002 a0.47800000000000004,0.47800000000000004 0 0 0 0.135,-0.17200000000000001 l0.11000000000000001,-0.137 c0.275,-0.31400000000000006 1.169,-1.303 1.062,-1.3960000000000001 c-0.30000000000000004,-0.26 -0.44600000000000006,0.30200000000000005 -0.8440000000000001,-0.035 c-0.22600000000000003,-0.16200000000000003 -0.793,-1.1600000000000001 -0.935,-1.4020000000000001 c-0.17200000000000001,-0.29200000000000004 0.3940000000000001,-0.5830000000000001 0.6250000000000001,-0.7270000000000001 c0.504,-0.31300000000000006 2.107,-0.7670000000000001 2.26,0.22700000000000004 c0.025000000000000005,0.16700000000000004 -0.17700000000000002,0.35700000000000004 -0.05500000000000001,0.457 c0.028000000000000004,0.024000000000000004 0.133,0.15600000000000003 0.17600000000000002,0.10500000000000001 l2.142,-2.576 c-0.06300000000000001,-0.05300000000000001 -0.135,-0.14700000000000002 -0.21000000000000002,-0.17600000000000002 c-0.47400000000000003,0.47300000000000003 -5.466,-1.52 -5.83,-1.795 c-0.16600000000000004,-0.06600000000000002 -0.19200000000000003,-0.6730000000000002 -0.37200000000000005,-0.6110000000000001 zm-0.22500000000000003,2.553 c0.7640000000000001,0.31800000000000006 1.526,0.6380000000000001 2.287,0.9600000000000001 c-0.23,0.06400000000000002 -0.44700000000000006,0.16600000000000004 -0.6480000000000001,0.29300000000000004 h-0.0020000000000000005 a3.71,3.71 0 0 0 -0.6210000000000001,0.49500000000000005 l-1.016,-1.7480000000000002 zm-6.588,7.753 c-1.107,-0.07600000000000001 -2.23,0.41000000000000003 -3.023,1.3170000000000002 c-1.235,1.5 -1.112,3.678 0.39300000000000007,4.945 c1.518,1.25 3.68,0.932 4.916,-0.55 c1.232,-1.496 1.147,-3.68 -0.38500000000000006,-4.934 a3.302,3.302 0 0 0 -1.9,-0.778 zm-1.449,1.5590000000000002 c0.6220000000000001,0.038000000000000006 1.31,0.41400000000000003 1.742,0.7030000000000001 c0.78,0.521 2.214,1.6870000000000003 1.477,2.738 c0.04800000000000001,-0.05800000000000001 0.08300000000000002,-0.09700000000000003 -0.05000000000000001,0.07 a0.16200000000000003,0.16200000000000003 0 0 1 -0.018000000000000002,0.018000000000000002 c-0.8,0.8400000000000001 -2.18,0.06300000000000001 -2.924,-0.47400000000000003 c-0.7450000000000001,-0.538 -2.022,-1.6680000000000001 -1.207,-2.664 c0.257,-0.31400000000000006 0.6070000000000001,-0.41400000000000003 0.98,-0.39100000000000007 zm-3.127,4.28 c-1.214,-0.06700000000000002 -2.403,0.49600000000000005 -3.299,1.576 c-0.6420000000000001,0.771 -1.282,1.544 -1.9220000000000002,2.316 c0.22800000000000004,0.3320000000000001 0.49500000000000005,-0.07800000000000001 0.8270000000000001,0.11300000000000002 c0.28300000000000003,0.16300000000000003 4.053,3.3120000000000003 4.115,3.485 c0.10600000000000001,0.29700000000000004 -0.16500000000000004,0.35600000000000004 0.09400000000000003,0.5680000000000001 c0.11100000000000002,0.09300000000000003 2.944,-3.4050000000000002 3.203,-4.02 c0.44800000000000006,-1.139 0.09100000000000003,-2.387 -0.8200000000000001,-3.175 c0.07300000000000001,0.06000000000000001 0.17700000000000002,0.14500000000000002 -0.04200000000000001,-0.037000000000000005 c-0.6900000000000002,-0.518 -1.427,-0.787 -2.156,-0.8270000000000001 zm-1.053,1.58 c0.09500000000000003,0.003000000000000001 0.18400000000000002,0.016000000000000004 0.266,0.037000000000000005 c1.4220000000000002,0.36300000000000004 3.384,2.115 2.129,3.628 c-0.15600000000000003,0.19300000000000003 -0.029000000000000005,0.035 -0.43200000000000005,0.42200000000000004 c-0.19800000000000004,0.19000000000000003 -4.179,-3.034 -4.02,-3.209 c0.47500000000000003,-0.521 1.3960000000000001,-0.904 2.057,-0.8790000000000001 z" fill="#fff" id="svg_9" class=""/></g></svg>